<svg width="26" height="21" viewBox="0 0 26 21" fill="none" xmlns="http://www.w3.org/2000/svg">
<path fill-rule="evenodd" clip-rule="evenodd" d="M19.3257 0.369999C19.0888 0.606981 18.9557 0.928353 18.9557 1.26345C18.9557 1.59854 19.0888 1.91991 19.3257 2.15689L20.9597 3.79088H13.9006C12.56 3.79088 11.2742 4.32344 10.3263 5.27141C9.3783 6.21938 8.84574 7.5051 8.84574 8.84574V10.1095C8.84574 10.4446 8.97888 10.766 9.21587 11.003C9.45286 11.24 9.77429 11.3732 10.1095 11.3732C10.4446 11.3732 10.766 11.24 11.003 11.003C11.24 10.766 11.3732 10.4446 11.3732 10.1095V8.84574C11.3732 8.17542 11.6395 7.53256 12.1134 7.05857C12.5874 6.58459 13.2303 6.31831 13.9006 6.31831H20.9597L19.3257 7.95229C19.0955 8.19063 18.9682 8.50985 18.971 8.84119C18.9739 9.17253 19.1068 9.48949 19.3411 9.72379C19.5754 9.95809 19.8924 10.091 20.2237 10.0939C20.5551 10.0968 20.8743 9.96938 21.1126 9.73918L24.9038 5.94804C25.1407 5.71106 25.2738 5.38968 25.2738 5.05459C25.2738 4.7195 25.1407 4.39813 24.9038 4.16114L21.1126 0.369999C20.8756 0.133089 20.5543 0 20.2192 0C19.8841 0 19.5627 0.133089 19.3257 0.369999ZM15.1643 8.84574C14.8292 8.84574 14.5077 8.97888 14.2707 9.21587C14.0337 9.45286 13.9006 9.77429 13.9006 10.1095V11.3732C13.9006 12.0435 13.6343 12.6863 13.1603 13.1603C12.6863 13.6343 12.0435 13.9006 11.3732 13.9006H4.31405L5.94804 12.2666C6.06874 12.15 6.16501 12.0106 6.23124 11.8564C6.29747 11.7022 6.33233 11.5364 6.33379 11.3686C6.33525 11.2008 6.30327 11.0344 6.23973 10.8791C6.17619 10.7238 6.08236 10.5827 5.9637 10.4641C5.84505 10.3454 5.70395 10.2516 5.54865 10.188C5.39334 10.1245 5.22693 10.0925 5.05914 10.094C4.89134 10.0954 4.72552 10.1303 4.57134 10.1965C4.41716 10.2627 4.27772 10.359 4.16115 10.4797L0.369999 14.2709C0.133089 14.5078 0 14.8292 0 15.1643C0 15.4994 0.133089 15.8208 0.369999 16.0578L4.16115 19.8489C4.39948 20.0791 4.7187 20.2065 5.05004 20.2036C5.38139 20.2007 5.69834 20.0678 5.93264 19.8335C6.16695 19.5992 6.29985 19.2823 6.30273 18.9509C6.30561 18.6196 6.17823 18.3004 5.94804 18.062L4.31405 16.428H11.3732C12.7138 16.428 13.9995 15.8955 14.9475 14.9475C15.8955 13.9995 16.428 12.7138 16.428 11.3732V10.1095C16.428 9.77429 16.2949 9.45286 16.0579 9.21587C15.8209 8.97888 15.4995 8.84574 15.1643 8.84574Z" fill="#242424"/>
</svg>
