<svg width="67" height="74" viewBox="0 0 67 74" fill="none" xmlns="http://www.w3.org/2000/svg">
<g id="&#240;&#159;&#166;&#134; icon &#34;archive book&#34;">
<g id="Group">
<path id="Vector" d="M46.9187 73.3639H19.6206C7.16577 73.3639 0 66.1981 0 53.7433V19.6206C0 7.16577 7.16577 0 19.6206 0H46.9187C59.3735 0 66.5393 7.16577 66.5393 19.6206V53.7433C66.5393 66.1981 59.3735 73.3639 46.9187 73.3639ZM19.6206 5.11841C9.86147 5.11841 5.11841 9.86147 5.11841 19.6206V53.7433C5.11841 63.5024 9.86147 68.2455 19.6206 68.2455H46.9187C56.6778 68.2455 61.4209 63.5024 61.4209 53.7433V19.6206C61.4209 9.86147 56.6778 5.11841 46.9187 5.11841H19.6206Z" fill="#292D32"/>
<path id="Vector_2" d="M23.0329 33.645C22.4528 33.645 21.8727 33.5426 21.3268 33.3038C19.7571 32.6213 18.7676 31.0858 18.7676 29.4138V2.5592C18.7676 1.16017 19.9278 0 21.3268 0H45.2127C46.6117 0 47.7719 1.16017 47.7719 2.5592V29.3796C47.7719 31.0858 46.7823 32.6213 45.2127 33.2697C43.6772 33.9521 41.8687 33.645 40.6061 32.4848L33.2697 25.7626L25.9333 32.519C25.1143 33.2697 24.0907 33.645 23.0329 33.645ZM33.2697 20.3372C34.2934 20.3372 35.3512 20.7124 36.1702 21.4631L42.6535 27.4346V5.11841H23.886V27.4346L30.3693 21.4631C31.1882 20.7124 32.2461 20.3372 33.2697 20.3372Z" fill="#292D32"/>
<path id="Vector_3" d="M52.0374 46.0657H37.5353C36.1362 46.0657 34.9761 44.9055 34.9761 43.5065C34.9761 42.1074 36.1362 40.9473 37.5353 40.9473H52.0374C53.4365 40.9473 54.5966 42.1074 54.5966 43.5065C54.5966 44.9055 53.4365 46.0657 52.0374 46.0657Z" fill="#292D32"/>
<path id="Vector_4" d="M52.0372 59.7146H23.0328C21.6338 59.7146 20.4736 58.5544 20.4736 57.1554C20.4736 55.7564 21.6338 54.5962 23.0328 54.5962H52.0372C53.4362 54.5962 54.5964 55.7564 54.5964 57.1554C54.5964 58.5544 53.4362 59.7146 52.0372 59.7146Z" fill="#292D32"/>
</g>
</g>
</svg>
