<svg width="67" height="69" viewBox="0 0 67 69" fill="none" xmlns="http://www.w3.org/2000/svg">
<g id="&#240;&#159;&#166;&#134; icon &#34;share&#34;">
<g id="Group">
<path id="Vector" d="M61.7319 36.5033C60.472 36.5033 59.4164 35.5498 59.2802 34.2899C58.4629 26.7985 54.4448 20.0562 48.2473 15.7657C47.1236 14.9825 46.8512 13.4501 47.6344 12.3264C48.4175 11.2027 49.9499 10.9303 51.0736 11.7135C58.4629 16.8553 63.2302 24.8916 64.2177 33.7791C64.3539 35.1412 63.3664 36.3671 62.0043 36.5033C61.9022 36.5033 61.8341 36.5033 61.7319 36.5033Z" fill="#292D32"/>
<path id="Vector_2" d="M5.13814 36.6723C5.07003 36.6723 4.96788 36.6723 4.89977 36.6723C3.53769 36.5361 2.55017 35.3102 2.68638 33.9481C3.60579 25.0605 8.30498 17.0242 15.6262 11.8482C16.7159 11.065 18.2823 11.3374 19.0655 12.4271C19.8487 13.5508 19.5762 15.0832 18.4866 15.8664C12.3572 20.2251 8.37309 26.9674 7.62394 34.4249C7.48773 35.7188 6.39806 36.6723 5.13814 36.6723Z" fill="#292D32"/>
<path id="Vector_3" d="M46.8562 65.0011C42.6677 67.0102 38.1729 68.0318 33.4737 68.0318C28.5702 68.0318 23.905 66.9421 19.5463 64.7287C18.3204 64.1498 17.8437 62.6515 18.4566 61.4257C19.0355 60.1998 20.5338 59.7231 21.7597 60.3019C23.905 61.3916 26.1865 62.1408 28.5021 62.5834C31.6349 63.1964 34.8358 63.2304 37.9685 62.6856C40.2841 62.277 42.5656 61.5619 44.6768 60.5403C45.9367 59.9614 47.435 60.4382 47.9799 61.6981C48.5928 62.924 48.1161 64.4223 46.8562 65.0011Z" fill="#292D32"/>
<path id="Vector_4" d="M33.4392 0C28.1611 0 23.8364 4.29057 23.8364 9.6027C23.8364 14.9148 28.1271 19.2054 33.4392 19.2054C38.7514 19.2054 43.0419 14.9148 43.0419 9.6027C43.0419 4.29057 38.7514 0 33.4392 0Z" fill="#292D32"/>
<path id="Vector_5" d="M9.6027 40.3838C4.32462 40.3838 0 44.6744 0 49.9865C0 55.2986 4.29057 59.5892 9.6027 59.5892C14.9148 59.5892 19.2054 55.2986 19.2054 49.9865C19.2054 44.6744 14.8808 40.3838 9.6027 40.3838Z" fill="#292D32"/>
<path id="Vector_6" d="M56.9362 40.3838C51.6581 40.3838 47.3335 44.6744 47.3335 49.9865C47.3335 55.2986 51.6241 59.5892 56.9362 59.5892C62.2483 59.5892 66.5389 55.2986 66.5389 49.9865C66.5389 44.6744 62.2483 40.3838 56.9362 40.3838Z" fill="#292D32"/>
</g>
</g>
</svg>
