<svg width="67" height="67" viewBox="0 0 67 67" fill="none" xmlns="http://www.w3.org/2000/svg">
<g id="&#240;&#159;&#166;&#134; icon &#34;back square&#34;">
<g id="Group">
<path id="Vector" d="M42.5542 66.5393H23.9851C7.18006 66.5393 0 59.3593 0 42.5542V23.9851C0 7.18006 7.18006 0 23.9851 0H42.5542C59.3593 0 66.5393 7.18006 66.5393 23.9851V42.5542C66.5393 59.3593 59.3593 66.5393 42.5542 66.5393ZM23.9851 4.64228C9.71783 4.64228 4.64228 9.71783 4.64228 23.9851V42.5542C4.64228 56.8215 9.71783 61.897 23.9851 61.897H42.5542C56.8215 61.897 61.897 56.8215 61.897 42.5542V23.9851C61.897 9.71783 56.8215 4.64228 42.5542 4.64228H23.9851Z" fill="#292D32"/>
<path id="Vector_2" d="M39.2128 46.0502H23.9861C22.7172 46.0502 21.6649 44.998 21.6649 43.7291C21.6649 42.4602 22.7172 41.4079 23.9861 41.4079H39.2128C43.1742 41.4079 46.4238 38.1893 46.4238 34.1969C46.4238 30.2046 43.2051 26.986 39.2128 26.986H18.2606C16.9917 26.986 15.9395 25.9338 15.9395 24.6649C15.9395 23.396 16.9917 22.3438 18.2606 22.3438H39.2128C45.7429 22.3438 51.0661 27.6668 51.0661 34.1969C51.0661 40.7271 45.7429 46.0502 39.2128 46.0502Z" fill="#292D32"/>
<path id="Vector_3" d="M22.6528 31.7835C22.0648 31.7835 21.4767 31.5668 21.0125 31.1026L16.1536 26.2438C15.2561 25.3463 15.2561 23.8607 16.1536 22.9632L21.0125 18.1043C21.91 17.2068 23.3956 17.2068 24.2931 18.1043C25.1906 19.0018 25.1906 20.4873 24.2931 21.3849L21.0744 24.6035L24.2931 27.8221C25.1906 28.7196 25.1906 30.2051 24.2931 31.1026C23.8598 31.5359 23.2718 31.7835 22.6528 31.7835Z" fill="#292D32"/>
</g>
</g>
</svg>
