<svg width="67" height="67" viewBox="0 0 67 67" fill="none" xmlns="http://www.w3.org/2000/svg">
<g id="&#240;&#159;&#166;&#134; icon &#34;info circle&#34;">
<g id="Group">
<path id="Vector" d="M33.2697 66.5393C14.9172 66.5393 0 51.6221 0 33.2697C0 14.9172 14.9172 0 33.2697 0C51.6221 0 66.5393 14.9172 66.5393 33.2697C66.5393 51.6221 51.6221 66.5393 33.2697 66.5393ZM33.2697 4.64228C17.4859 4.64228 4.64228 17.4859 4.64228 33.2697C4.64228 49.0534 17.4859 61.897 33.2697 61.897C49.0534 61.897 61.897 49.0534 61.897 33.2697C61.897 17.4859 49.0534 4.64228 33.2697 4.64228Z" fill="#292D32"/>
<path id="Vector_2" d="M33.2694 38.6854C32.0005 38.6854 30.9482 37.6331 30.9482 36.3642V20.89C30.9482 19.6211 32.0005 18.5688 33.2694 18.5688C34.5383 18.5688 35.5905 19.6211 35.5905 20.89V36.3642C35.5905 37.6331 34.5383 38.6854 33.2694 38.6854Z" fill="#292D32"/>
<path id="Vector_3" d="M33.2697 48.7436C32.8673 48.7436 32.465 48.6507 32.0936 48.496C31.7222 48.3412 31.3818 48.1246 31.0723 47.8461C30.7938 47.5366 30.5771 47.2271 30.4224 46.8248C30.2677 46.4534 30.1748 46.051 30.1748 45.6487C30.1748 45.2464 30.2677 44.8441 30.4224 44.4727C30.5771 44.1013 30.7938 43.7609 31.0723 43.4514C31.3818 43.1728 31.7222 42.9562 32.0936 42.8014C32.8364 42.492 33.7029 42.492 34.4457 42.8014C34.8171 42.9562 35.1575 43.1728 35.467 43.4514C35.7455 43.7609 35.9622 44.1013 36.1169 44.4727C36.2717 44.8441 36.3645 45.2464 36.3645 45.6487C36.3645 46.051 36.2717 46.4534 36.1169 46.8248C35.9622 47.2271 35.7455 47.5366 35.467 47.8461C35.1575 48.1246 34.8171 48.3412 34.4457 48.496C34.0743 48.6507 33.672 48.7436 33.2697 48.7436Z" fill="#292D32"/>
</g>
</g>
</svg>
